<?xml version="1.0" encoding="UTF-8" standalone="no"?>
<!-- Created with Inkscape (http://www.inkscape.org/) -->

<svg
   xmlns:dc="http://purl.org/dc/elements/1.1/"
   xmlns:cc="http://creativecommons.org/ns#"
   xmlns:rdf="http://www.w3.org/1999/02/22-rdf-syntax-ns#"
   xmlns:svg="http://www.w3.org/2000/svg"
   xmlns="http://www.w3.org/2000/svg"
   xmlns:sodipodi="http://sodipodi.sourceforge.net/DTD/sodipodi-0.dtd"
   xmlns:inkscape="http://www.inkscape.org/namespaces/inkscape"
   id="svg4191"
   version="1.1"
   inkscape:version="0.91 r13725"
   width="483.54019"
   height="193.50244">
  <metadata
     id="metadata4197">
    <rdf:RDF>
      <cc:Work
         rdf:about="">
        <dc:format>image/svg+xml</dc:format>
        <dc:type
           rdf:resource="http://purl.org/dc/dcmitype/StillImage" />
      </cc:Work>
    </rdf:RDF>
  </metadata>
  <defs
     id="defs4195" />
  <sodipodi:namedview
     pagecolor="#ffffff"
     bordercolor="#666666"
     borderopacity="1"
     objecttolerance="10"
     gridtolerance="10"
     guidetolerance="10"
     inkscape:pageopacity="0"
     inkscape:pageshadow="2"
     inkscape:window-width="640"
     inkscape:window-height="480"
     id="namedview4193" />
  <inkscape:clipboard
     style="color:#000000;clip-rule:nonzero;display:inline;overflow:visible;visibility:visible;opacity:1;isolation:auto;mix-blend-mode:normal;color-interpolation:sRGB;color-interpolation-filters:linearRGB;solid-color:#000000;solid-opacity:1;fill:#000000;fill-opacity:1;fill-rule:nonzero;stroke:none;stroke-width:1px;stroke-linecap:butt;stroke-linejoin:miter;stroke-miterlimit:4;stroke-dasharray:none;stroke-dashoffset:0;stroke-opacity:1;filter-blend-mode:normal;filter-gaussianBlur-deviation:0;color-rendering:auto;image-rendering:auto;shape-rendering:auto;text-rendering:auto;enable-background:accumulate"
     min="1.4285709,856.82141"
     max="484.96875,1050.3239" />
  <path
     inkscape:connector-curvature="0"
     id="path4151"
     style="font-style:normal;font-variant:normal;font-weight:normal;font-stretch:normal;font-size:162.09532166px;line-height:125%;font-family:'Upheaval TT (BRK)';-inkscape-font-specification:'Upheaval TT (BRK)';letter-spacing:0px;word-spacing:0px;fill:#000000;fill-opacity:1;stroke:none;stroke-width:1px;stroke-linecap:butt;stroke-linejoin:miter;stroke-opacity:1"
     d="m 96.751223,152.03763 13.821617,0 0,-13.8216 13.82159,0 0,-13.8216 13.82161,0 0,-13.8216 13.82161,0 0,-82.929626 -55.286427,0 0,69.108019 -13.821593,0 0,13.821607 -13.821611,0 0,13.8216 -13.82161,0 0,-96.751226 -55.286409,0 0,138.216036 96.751223,0 0,-13.82161 z" />
  <path
     inkscape:connector-curvature="0"
     id="path4153"
     style="font-style:normal;font-variant:normal;font-weight:normal;font-stretch:normal;font-size:162.09532166px;line-height:125%;font-family:'Upheaval TT (BRK)';-inkscape-font-specification:'Upheaval TT (BRK)';letter-spacing:0px;word-spacing:0px;fill:#000000;fill-opacity:1;stroke:none;stroke-width:1px;stroke-linecap:butt;stroke-linejoin:miter;stroke-opacity:1"
     d="m 165.75127,193.50244 27.64321,0 0,-13.82159 13.82161,0 0,-13.8216 96.75122,0 0,-13.82161 13.82161,0 0,-110.572841 -13.82161,0 0,-13.821595 13.82161,0 0,-27.643204 -27.64322,0 0,13.821594 -13.82159,0 0,13.82161 -96.75124,0 0,13.821595 -13.8216,0 0,110.572841 13.8216,0 0,13.82161 -13.8216,0 0,27.6432 z m 55.28641,-138.216031 27.64321,0 0,13.821612 -13.8216,0 0,27.643202 -13.82161,0 0,-41.464814 z m 13.82161,69.108021 13.8216,0 0,-27.643207 13.82161,0 0,41.464807 -27.64321,0 0,-13.8216 z" />
  <path
     inkscape:connector-curvature="0"
     id="path4155"
     style="font-style:normal;font-variant:normal;font-weight:normal;font-stretch:normal;font-size:162.09532166px;line-height:125%;font-family:'Upheaval TT (BRK)';-inkscape-font-specification:'Upheaval TT (BRK)';letter-spacing:0px;word-spacing:0px;fill:#000000;fill-opacity:1;stroke:none;stroke-width:1px;stroke-linecap:butt;stroke-linejoin:miter;stroke-opacity:1"
     d="m 386.78896,110.57283 41.46481,0 0,55.28641 55.28641,0 0,-55.28641 -13.82159,0 0,-27.643217 13.82159,0 0,-41.464814 -13.82159,0 0,-13.821595 -41.46482,0 -41.46481,0 -55.28641,0 0,138.216036 55.28641,0 0,-55.28641 z m 0,-55.286421 41.46481,0 0,27.643204 -41.46481,0 0,-27.643204 z" />
</svg>
